<svg id="Capa_1" enable-background="new 0 0 512 512" height="512" viewBox="0 0 512 512" width="512" xmlns="http://www.w3.org/2000/svg"><g><g><path d="m302.33 305.065v120.052h-271.989c-12.615 0-22.841-10.226-22.841-22.841v-98.421c0-8.79 5.036-16.8 12.964-20.595l42.39-20.318c4.626-2.215 7.959-6.451 9.036-11.457l19.426-97.601c.903-4.226 4.646-7.241 8.974-7.241h157.458c5.067 0 9.18 4.103 9.18 9.169v123.427c0 6.215 3.672 11.846 9.354 14.359z" fill="#ffd15b"/><path d="m276.282 293.598c-5.682-2.513-9.354-8.144-9.354-14.359v-123.427c0-5.067-4.113-9.169-9.18-9.169h-16.928c5.067 0 9.18 4.103 9.18 9.169v123.427c0 6.215 3.672 11.846 9.354 14.359l26.048 11.467v120.052h16.928v-120.052z" fill="#ffc344"/><path d="m225.743 262.948h-112.31c-5.163 0-9.056-4.689-8.107-9.764l11.186-66.997c.73-3.903 4.137-6.732 8.107-6.732h101.123c4.555 0 8.248 3.693 8.248 8.248v66.997c.001 4.555-3.692 8.248-8.247 8.248z" fill="#60b7ff"/><path d="m225.743 179.455h-18.888c4.555 0 8.248 3.693 8.248 8.248v66.997c0 4.555-3.693 8.248-8.248 8.248h18.888c4.555 0 8.248-3.693 8.248-8.248v-66.997c0-4.556-3.693-8.248-8.248-8.248z" fill="#26a6fe"/><circle cx="91.018" cy="425.121" fill="#537983" r="46.969"/><path d="m91.018 378.152c-2.974 0-5.88.289-8.701.818 21.781 4.082 38.268 23.186 38.268 46.151s-16.487 42.069-38.268 46.151c2.821.529 5.727.818 8.701.818 25.94 0 46.969-21.029 46.969-46.969s-21.029-46.969-46.969-46.969z" fill="#476666"/><circle cx="212.059" cy="425.121" fill="#537983" r="46.969"/><path d="m212.059 378.152c-2.94 0-5.813.283-8.604.8 21.829 4.043 38.365 23.169 38.365 46.169s-16.536 42.126-38.365 46.169c2.791.517 5.663.8 8.604.8 25.94 0 46.969-21.029 46.969-46.969s-21.029-46.969-46.969-46.969z" fill="#476666"/><circle cx="212.059" cy="425.121" fill="#7ca1b1" r="21.932"/><circle cx="91.018" cy="425.121" fill="#7ca1b1" r="21.932"/><path d="m331.78 425.117h-29.45v-380.36c0-2.677 2.17-4.847 4.847-4.847h19.757c2.677 0 4.847 2.17 4.847 4.847v380.36z" fill="#476666"/><path d="m69.09 335.891c0 7.033-5.701 12.733-12.733 12.733h-48.857v-25.467h48.857c7.032 0 12.733 5.701 12.733 12.734z" fill="#d83131"/><path d="m56.357 323.157h-19.731c7.032 0 12.733 5.701 12.733 12.733s-5.701 12.734-12.733 12.734h19.731c7.032 0 12.733-5.701 12.733-12.734s-5.701-12.733-12.733-12.733z" fill="#ca2c2c"/><path d="m331.78 291.569h152.199v104.912h-152.199z" fill="#ffbd86"/><path d="m463.173 291.569h20.806v104.912h-20.806z" fill="#f6a96c"/><path d="m500.543 404.487-62.903 20.631h-105.86v-28.636h106.657l58.504-19.419c3.721-1.235 7.559 1.535 7.559 5.456v16.507c0 2.483-1.596 4.686-3.957 5.461z" fill="#537983"/><path d="m496.941 377.062-19.418 6.445c3.339-.425 6.457 2.164 6.457 5.697v16.507c0 2.484-1.596 4.688-3.957 5.462l-.231.12 20.751-6.806c2.361-.774 3.957-2.978 3.957-5.462v-16.507c0-3.921-3.838-6.691-7.559-5.456z" fill="#476666"/><path d="m331.78 186.658h152.199v104.912h-152.199z" fill="#f6a96c"/><path d="m463.173 186.657h20.806v104.912h-20.806z" fill="#ea9b58"/><path d="m477.617 81.746h-145.837v104.912h152.199v-98.55c0-3.514-2.849-6.362-6.362-6.362z" fill="#ffbd86"/><path d="m477.617 81.746h-20.806c3.514 0 6.362 2.849 6.362 6.362v98.549h20.806v-98.549c0-3.514-2.849-6.362-6.362-6.362z" fill="#f6a96c"/><g fill="#eaf6ff"><path d="m395.446 81.746h27.857v36.907h-27.857z"/><path d="m395.446 186.658h27.857v36.907h-27.857z"/><path d="m395.446 291.569h27.857v36.907h-27.857z"/></g></g><g><path d="m212.059 395.689c-16.229 0-29.432 13.203-29.432 29.432s13.203 29.432 29.432 29.432 29.432-13.203 29.432-29.432-13.203-29.432-29.432-29.432zm0 43.864c-7.958 0-14.432-6.474-14.432-14.432s6.474-14.432 14.432-14.432 14.432 6.474 14.432 14.432-6.474 14.432-14.432 14.432z"/><path d="m91.018 395.689c-16.229 0-29.432 13.203-29.432 29.432s13.203 29.432 29.432 29.432 29.432-13.203 29.432-29.432-13.203-29.432-29.432-29.432zm0 43.864c-7.958 0-14.432-6.474-14.432-14.432s6.474-14.432 14.432-14.432 14.432 6.474 14.432 14.432-6.474 14.432-14.432 14.432z"/><path d="m105.183 287.8c-4.142 0-7.5 3.358-7.5 7.5s3.358 7.5 7.5 7.5h32.804c4.142 0 7.5-3.358 7.5-7.5s-3.358-7.5-7.5-7.5z"/><path d="m506.504 371.774c-3.44-2.483-7.9-3.167-11.926-1.831l-3.098 1.028v-79.401c0-.007-.001-.013-.001-.019v-104.893-98.55c0-7.644-6.219-13.863-13.862-13.863h-138.337v-29.488c0-6.808-5.539-12.347-12.347-12.347h-19.757c-6.808 0-12.347 5.539-12.347 12.347v141.596h-20.399v-30.543c0-9.192-7.483-16.67-16.68-16.67h-94.73c-4.142 0-7.5 3.358-7.5 7.5s3.358 7.5 7.5 7.5h94.73c.926 0 1.68.749 1.68 1.67v123.43c0 9.181 5.424 17.51 13.83 21.225l21.57 9.489v36.114l-32.854-14.045c-3.809-1.627-8.216.139-9.844 3.948s.139 8.216 3.948 9.845l38.75 16.565v55.239h-28.831c-3.667-26.496-26.451-46.968-53.94-46.968s-50.273 20.472-53.94 46.968h-13.143c-3.666-26.499-26.465-46.97-53.956-46.97s-50.29 20.472-53.956 46.97h-6.724c-8.458 0-15.34-6.882-15.34-15.34v-46.156h41.357c11.157 0 20.233-9.077 20.233-20.233s-9.077-20.233-20.233-20.233h-41.357v-11.808c0-5.87 3.414-11.297 8.702-13.827l42.379-20.314c6.667-3.183 11.58-9.406 13.141-16.648.008-.039.017-.078.024-.116l19.416-97.529c.173-.741.853-1.275 1.629-1.275h27.385c4.142 0 7.5-3.358 7.5-7.5s-3.358-7.5-7.5-7.5h-27.386c-7.819 0-14.676 5.541-16.305 13.175-.007.033-.014.067-.021.101l-19.416 97.531c-.6 2.712-2.44 5.037-4.94 6.23l-42.386 20.318c-10.462 5.005-17.222 15.743-17.222 27.354v98.43c0 16.729 13.61 30.34 30.34 30.34h6.739c3.667 26.497 26.452 46.97 53.941 46.97s50.274-20.473 53.941-46.97h13.157c3.667 26.497 26.451 46.97 53.94 46.97s50.274-20.473 53.94-46.97l121.228-.003c4.142 0 7.5-3.358 7.5-7.5s-3.358-7.5-7.5-7.5h-47.946v-13.636h99.157c.806-.012 1.602-.139 2.363-.382l56.2-18.654v12.811l-60.558 19.861h-13.139c-4.142 0-7.5 3.358-7.5 7.5s3.358 7.5 7.5 7.5h14.337c.794 0 1.583-.126 2.337-.374l62.902-20.63c5.455-1.79 9.12-6.848 9.12-12.588v-16.507c.001-4.244-2.053-8.26-5.495-10.744zm-450.147-41.117c2.886 0 5.233 2.348 5.233 5.233s-2.348 5.233-5.233 5.233h-41.357v-10.467h41.357zm380.87 58.323h-97.947v-89.91h48.667v29.406c0 4.142 3.358 7.5 7.5 7.5h27.857c4.142 0 7.5-3.358 7.5-7.5v-29.406h45.677v76.881zm-34.281-89.91h12.857v21.906h-12.857zm12.857-209.824v21.907h-12.857v-21.907zm-27.857 0v29.407c0 4.142 3.358 7.5 7.5 7.5h27.857c4.142 0 7.5-3.358 7.5-7.5v-29.407h45.676v89.912h-109.242c-4.142 0-7.5 3.358-7.5 7.5s3.358 7.5 7.5 7.5h20.709v29.407c0 4.142 3.358 7.5 7.5 7.5h27.857c4.142 0 7.5-3.358 7.5-7.5v-29.407h45.676v89.912h-137.199v-97.412-97.412zm15 104.912h12.857v21.907h-12.857zm-93.116-146.748h14.45v370.207h-14.45zm-30.518 239.33c-2.965-1.311-4.881-4.254-4.881-7.5v-77.888h20.399v92.214zm-188.292 177.85c-21.764 0-39.47-17.706-39.47-39.47s17.706-39.47 39.47-39.47 39.47 17.706 39.47 39.47-17.706 39.47-39.47 39.47zm121.039 0c-21.761 0-39.466-17.703-39.469-39.463 0-.002 0-.004 0-.007s0-.004 0-.006c.004-21.76 17.708-39.462 39.469-39.462 21.763 0 39.469 17.706 39.469 39.469s-17.706 39.469-39.469 39.469z"/><path d="m187.34 270.449c.007 0 .014-.001.021-.001h38.381c8.684 0 15.748-7.064 15.748-15.748v-66.997c0-8.684-7.064-15.748-15.748-15.748h-101.122c-7.577 0-14.086 5.405-15.479 12.853-.009.048-.018.096-.025.144l-11.177 66.937c-.833 4.592.396 9.279 3.38 12.872 3.001 3.614 7.417 5.688 12.115 5.688h73.894c.004-.001.008 0 .012 0zm39.151-82.746v66.997c0 .413-.335.748-.748.748h-29.678l10.467-68.493h19.211c.412 0 .748.335.748.748zm-113.633 67.475c-.272-.374-.159-.526-.135-.759l11.168-66.887c.079-.337.379-.578.728-.578h66.737l-10.467 68.493h-67.457c-.086.001-.35.001-.574-.269z"/></g></g></svg>