<svg height="496pt" viewBox="0 -27 496 495" width="496pt" xmlns="http://www.w3.org/2000/svg"><path d="m40 8.5h416c8.835938 0 16 7.164062 16 16v320h-448v-320c0-8.835938 7.164062-16 16-16zm0 0" fill="#a7a9ac"/><path d="m440 40.5v272h-384v-272zm0 0" fill="#00d7df"/><path d="m8 368.5h480v48c0 8.835938-7.164062 16-16 16h-448c-8.835938 0-16-7.164062-16-16zm0 0" fill="#6d6e71"/><path d="m80 80.5h64v48h-64zm0 0" fill="#9cdd05"/><path d="m80 128.5h64v48h-64zm0 0" fill="#ff9811"/><path d="m80 176.5h64v48h-64zm0 0" fill="#1a6fb0"/><path d="m80 224.5h64v48h-64zm0 0" fill="#ffda44"/><path d="m328 80.5h88v48h-88zm0 0" fill="#ff5023"/><path d="m328 128.5h88v64h-88zm0 0" fill="#ff9811"/><path d="m272 232.5 13.894531 40.808594 22.210938-21.617188zm0 0" fill="#ff9811"/><path d="m297 262.5 15 18" fill="#ff9811"/><path d="m192 368.5h112v16c0 8.835938-7.164062 16-16 16h-80c-8.835938 0-16-7.164062-16-16zm0 0" fill="#3e3d42"/><path d="m264 196.5c0 24.300781-19.699219 44-44 44s-44-19.699219-44-44 19.699219-44 44-44 44 19.699219 44 44zm0 0" fill="#ff9811"/><path d="m216 184.5 40-72 40 72zm0 0" fill="#00aeef"/><path d="m400 160.5c0 4.417969-3.582031 8-8 8s-8-3.582031-8-8 3.582031-8 8-8 8 3.582031 8 8zm0 0" fill="#ff9811"/><g fill="#231f20"><path d="m488 360.5h-480c-4.417969 0-8 3.582031-8 8v48c0 13.253906 10.746094 24 24 24h448c13.253906 0 24-10.746094 24-24v-48c0-4.417969-3.582031-8-8-8zm-192 16v8c0 4.417969-3.582031 8-8 8h-80c-4.417969 0-8-3.582031-8-8v-8zm184 40c0 4.417969-3.582031 8-8 8h-448c-4.417969 0-8-3.582031-8-8v-40h168v8c0 13.253906 10.746094 24 24 24h80c13.253906 0 24-10.746094 24-24v-8h168zm0 0"/><path d="m80 280.5h64c4.417969 0 8-3.582031 8-8v-192c0-4.417969-3.582031-8-8-8h-64c-4.417969 0-8 3.582031-8 8v192c0 4.417969 3.582031 8 8 8zm8-96h48v32h-48zm48-16h-48v-32h48zm0 96h-48v-32h48zm-48-176h48v32h-48zm0 0"/><path d="m328 200.5h88c4.417969 0 8-3.582031 8-8v-112c0-4.417969-3.582031-8-8-8h-88c-4.417969 0-8 3.582031-8 8v112c0 4.417969 3.582031 8 8 8zm80-16h-72v-48h72zm-72-96h72v32h-72zm0 0"/><path d="m352 168.5h16c4.417969 0 8-3.582031 8-8s-3.582031-8-8-8h-16c-4.417969 0-8 3.582031-8 8s3.582031 8 8 8zm0 0"/><path d="m266.816406 226.402344c-2.503906 2.125-3.457031 5.5625-2.402344 8.671875l13.898438 40.800781c.882812 2.597656 3.035156 4.558594 5.703125 5.199219.613281.148437 1.242187.222656 1.871094.226562 2.09375.003907 4.101562-.8125 5.601562-2.273437l4.910157-4.800782 9.472656 11.363282c1.804687 2.273437 4.703125 3.390625 7.566406 2.917968 2.867188-.46875 5.25-2.457031 6.230469-5.191406s.402343-5.78125-1.507813-7.96875l-10.257812-12.3125 5.792968-5.597656c1.832032-1.785156 2.703126-4.335938 2.34375-6.867188-.359374-2.527343-1.910156-4.734374-4.167968-5.933593l-36.101563-19.199219c-2.902343-1.546875-6.453125-1.164062-8.953125.964844zm27.847656 27.203125-5.28125 5.132812-3.292968-9.695312zm0 0"/><path d="m24 352.5h448c4.417969 0 8-3.582031 8-8v-320c0-13.253906-10.746094-24-24-24h-416c-13.253906 0-24 10.746094-24 24v320c0 4.417969 3.582031 8 8 8zm8-328c0-4.417969 3.582031-8 8-8h416c4.417969 0 8 3.582031 8 8v312h-432zm0 0"/><path d="m440 32.5h-384c-4.417969 0-8 3.582031-8 8v272c0 4.417969 3.582031 8 8 8h384c4.417969 0 8-3.582031 8-8v-272c0-4.417969-3.582031-8-8-8zm-8 272h-368v-256h368zm0 0"/><path d="m220 248.5c28.703125-.035156 51.964844-23.296875 52-52 0-1.351562-.105469-2.671875-.199219-4h24.199219c2.835938 0 5.457031-1.5 6.894531-3.945312 1.4375-2.441407 1.476563-5.464844.097657-7.941407l-40-72c-1.53125-2.375-4.164063-3.8125-6.992188-3.8125s-5.460938 1.4375-6.992188 3.8125l-20.367187 36.6875c-19.417969-3.441406-39.113281 4.394531-50.855469 20.242188-11.742187 15.84375-13.507812 36.964843-4.566406 54.542969 8.945312 17.574218 27.0625 28.578124 46.78125 28.414062zm36-119.527344 26.398438 47.527344h-14.398438c-4.710938-11.195312-13.164062-20.402344-23.921875-26.046875zm-19.761719 35.574219c5.5 2.757813 10.203125 6.871094 13.664063 11.953125h-20.300782zm-16.238281-4.046875h.175781l-11.199219 20.097656c-1.390624 2.480469-1.355468 5.515625.09375 7.96875 1.445313 2.449219 4.082032 3.949219 6.929688 3.933594h39.59375c.210938 1.324219.347656 2.660156.40625 4 0 19.882812-16.117188 36-36 36s-36-16.117188-36-36 16.117188-36 36-36zm0 0"/><path d="m400 160.5c0 4.417969-3.582031 8-8 8s-8-3.582031-8-8 3.582031-8 8-8 8 3.582031 8 8zm0 0"/></g></svg>