<svg id="Capa_1" enable-background="new 0 0 512 512" height="512" viewBox="0 0 512 512" width="512" xmlns="http://www.w3.org/2000/svg"><g><path d="m502.311 403.331-127.365-127.37c-6.483-6.484-15.068-3.8-13.537-4.105-13.868 2.764-26.578-5.774-34.555-13.079l52.47-52.472c36.069 9.82 75.16-.306 101.917-27.064 31.418-31.419 39.661-79.45 20.514-119.517-4.462-9.336-16.832-11.448-24.141-4.139l-48.415 48.416-17.412-3.808-3.797-17.409 48.411-48.413c7.318-7.317 5.186-19.685-4.14-24.142-40.081-19.151-88.111-10.907-119.513 20.514-26.756 26.757-36.879 65.854-27.057 101.928l-75.906 75.909-102.87-102.874 14.142-14.143c6.413-6.412 5.705-17.017-1.495-22.523l-60.103-45.963c-5.973-4.567-14.403-4.007-19.719 1.309l-35.356 35.357c-5.316 5.316-5.876 13.747-1.309 19.719l45.962 60.106c5.503 7.198 16.101 7.915 22.522 1.495l14.142-14.142 102.87 102.874-75.906 75.909c-36.077-9.822-75.169.3-101.922 27.054-31.422 31.407-39.667 79.438-20.517 119.519 4.459 9.335 16.829 11.451 24.141 4.14l48.411-48.413 17.408 3.797 3.809 17.413-48.415 48.417c-7.315 7.315-5.19 19.684 4.139 24.141 40.078 19.156 88.106 10.896 119.514-20.514 26.758-26.759 36.883-65.852 27.064-101.921l52.458-52.46c17.966 19.661 13.088 34.562 13.088 34.562-.956 4.814.535 9.947 4.107 13.52l127.365 127.37c12.889 12.887 33.859 12.887 46.745 0l52.249-52.251c12.92-12.919 12.922-33.828.002-46.747zm-447.427-331.661 16.783-16.783 36.062 27.578-25.268 25.269zm120.291 308.829c10.372 27.527 3.639 58.751-17.154 79.545-16.966 16.966-40.701 24.472-63.646 21.22l36.634-36.636c3.614-3.613 5.139-8.819 4.047-13.812l-7.615-34.826c-1.252-5.728-5.728-10.202-11.457-11.451l-34.818-7.595c-4.988-1.091-10.191.437-13.803 4.049l-36.628 36.629c-3.254-22.945 4.253-46.689 21.22-63.648 20.792-20.793 52.018-27.523 79.548-17.148 5.512 2.077 11.732.736 15.897-3.43l185.984-185.991c4.166-4.166 5.508-10.384 3.43-15.897-10.375-27.533-3.645-58.76 17.151-79.555 16.958-16.968 40.702-24.472 63.643-21.218l-36.628 36.631c-3.611 3.611-5.138 8.813-4.049 13.803l7.594 34.819c1.249 5.729 5.723 10.206 11.451 11.458l34.825 7.616c4.992 1.09 10.197-.434 13.811-4.048l36.635-36.635c3.251 22.939-4.256 46.683-21.22 63.648-20.794 20.794-52.015 27.529-79.543 17.155-5.513-2.077-11.731-.735-15.896 3.43-1.751 1.751-181.443 181.45-185.984 185.99-4.165 4.166-5.507 10.384-3.429 15.897zm130.469-100.512c6.546 6.108 15.588 13.023 26.523 17.54l-34.655 34.657c-4.517-10.935-11.43-19.983-17.536-26.528zm175.454 148.877-52.249 52.251c-1.191 1.19-3.128 1.191-4.319 0l-116.76-116.763 56.569-56.571 116.759 116.763c1.195 1.196 1.196 3.123 0 4.32z"/></g></svg>