<svg id="Capa_1" enable-background="new 0 0 512.01 512.01" height="512" viewBox="0 0 512.01 512.01" width="512" xmlns="http://www.w3.org/2000/svg"><path d="m.008 81.741 74.389 74.579 37.741 21.131 66.366 66.366-160.41 160.42c-24.123 24.374-24.129 65.105-.003 89.466 24.237 24.472 65.091 24.338 89.463 0l160.413-160.423 18.53 18.53 81.039 125.799c26.324 40.234 86.727 46.331 120.857 12.093 36.293-36.406 29.792-93.846-12.916-121.401l-120.242-84.781-18.753-18.754c47.526 14.604 100.891.669 136.423-34.863 18.483-18.483 31.945-41.552 36.565-67.176 4.533-25.139 3.085-50.677-5.033-74.244l-7.953-22.032-52.956 51.593-39.455-11.265-9.979-39.801 52.624-50.947c-23.051-8.549-45.318-16.257-70.387-16.025-35.166.327-69.558 13.994-94.439 38.875-35.539 35.538-49.474 88.896-34.871 136.42l-66.364-66.368-20.956-37.916-71.065-71.009zm86.334 390.75c-12.804 12.803-34.231 12.804-47.037 0-12.813-12.811-12.813-34.231.001-47.038l160.412-160.422 47.028 47.047zm372.676-79.106c27.208 17.395 31.428 51.833 8.163 75.107-20.582 20.577-58.519 16.522-74.498-7.243l-75.281-116.861 29.814-29.814 111.239 78.433zm-134.692-98.347-26.087 26.087-164.887-164.886-37.757-21.147-49.845-49.838 42.885-42.885 49.769 49.776 21.13 38.09zm-56.092-98.523 14.817-14.817c-7.333-18.814-12.249-37.319-10.199-57.754 2.408-24.003 13.192-46.788 30.253-63.849 22.84-22.839 54.749-33.576 86.057-30.095l-28.38 27.475 18.402 73.399 72.766 20.775 29.845-28.896c3.419 31.275-7.342 63.176-30.103 85.938-17.059 17.058-39.845 27.837-63.845 30.244-20.428 2.048-38.945-2.868-57.759-10.201l-14.819 14.818z"/></svg>