<svg id="Capa_1" enable-background="new 0 0 512.021 512.021" height="512" viewBox="0 0 512.021 512.021" width="512" xmlns="http://www.w3.org/2000/svg"><g><g><path d="m275.294 292.752-6.61 22.64-181.16 181.17c-9.97 9.98-23.07 15.45-36.15 15.45-13.03 0-26.06-5.43-36.02-15.34l97.575-142.2 134.355-89.73z" fill="#04303e"/><path d="m247.284 264.742-231.93 231.93c-.04-.03-.08-.07-.12-.11-20.323-20.208-20.302-52.564 0-72.3l42.93-42.94 138.22-138.22h29.26z" fill="#07485e"/></g><g><path d="m474.737 217.123c-36.81 36.81-90.57 46.34-136.15 28.57l-19.6 19.6-23.35 4.55-26.63-26.62 43.274-115.784 88.406-15.896 58.62 16.13 43.94-42.54.47-.47v-.01l.71-.7c16.21 44.93 6.31 97.17-29.69 133.17z" fill="#04303e"/><path d="m384.644 50.752 15.84 60.79-131.68 131.68-26.87-26.87 4.56-23.36 19.59-19.59c-17.76-45.57-8.23-99.34 28.58-136.15 36.28-36.28 89.03-46.06 134.19-29.31z" fill="#07485e"/></g><g><g><path d="m350.835 297.333 1.328 11.466-17.277 17.276-10.782-1.973-137.643-114.707-152.607-175.543 37.56-33.84 72.84 72.77 22.38 40.35z" fill="#e2e2eb"/><path d="m324.104 324.102 2.868 9.207-15.66 15.66-10.568-1.507-32.06-32.07-30.72-30.721v-.009l-.5-.481-41.08-41.079-79.86-79.87-40.16-22.561-76.35-76.339 33.84-30.48z" fill="#f5f5f8"/></g><g><path d="m491.575 491.612-104.472-56.26-63.038-111.25 26.77-26.769 128.74 90.809c37.476 22.12 43.836 71.828 12 103.47z" fill="#0d90bc"/><path d="m491.614 491.612c-.21.24-.45.48-.68.71-29.96 29.97-79.85 25.06-103.42-10.18l-86.77-134.68 23.36-23.36z" fill="#0fa8dc"/></g></g></g></svg>